<svg width="139" height="55" viewBox="0 0 139 55" fill="none" xmlns="http://www.w3.org/2000/svg">
<g filter="url(#filter0_d_206_3922)">
<rect x="8.46472" y="9.18311" width="119.238" height="33.7601" fill="white"/>
<path fill-rule="evenodd" clip-rule="evenodd" d="M2 27.1405V52.2811H69.1611H136.322V27.1405V2H69.1611H2V27.1405ZM39.5758 19.4089L42.2383 21.3243L42.6319 19.2218L43.0261 17.1194L55.3633 17.3065C67.1276 17.4848 67.8033 17.5573 69.9069 18.8664C71.1199 19.6212 72.4993 20.6268 72.973 21.1004C73.7304 21.8593 73.8332 21.8166 73.8332 20.7426C73.8332 18.6144 77.0289 17.2059 81.8633 17.2036C85.2383 17.2018 86.0974 17.379 86.0974 18.0782C86.0974 18.6237 86.6487 18.9552 87.5574 18.9552C88.4662 18.9552 89.0175 18.6237 89.0175 18.0782C89.0175 17.3322 90.5248 17.2018 99.0916 17.2048C104.633 17.2065 110.086 17.4702 111.21 17.7906C112.334 18.111 114.283 19.2487 115.543 20.3187C117.639 22.1013 117.822 22.4907 117.729 24.9662C117.672 26.4524 117.385 28.304 117.09 29.0816C116.567 30.4585 116.617 30.4877 118.992 30.2235C120.89 30.0124 121.741 30.2235 122.833 31.1776C123.605 31.8512 124.45 32.4025 124.711 32.4025C125.798 32.4025 126.337 34.6061 125.76 36.6974C125.036 39.3226 123.637 40.1171 120.14 39.888C117.845 39.7377 117.268 39.4418 116.37 37.9568C114.592 35.013 114.501 34.6277 115.162 32.8737L115.801 31.1782L113.14 32.6674C110.917 33.9115 109.722 34.1565 105.88 34.1565C102.631 34.1565 101.259 33.9419 101.207 33.4257C101.165 33.024 100.83 34.2734 100.461 36.2028L99.7901 39.7108L93.5278 39.8768L87.2654 40.0429V38.5613C87.2654 36.7179 86.9904 36.7156 84.8231 38.5415C83.095 39.9967 83.0378 40.0031 71.3062 39.9786L59.525 39.9534L58.2109 37.8913C57.4879 36.7571 56.8969 35.5848 56.8969 35.2855C56.8969 34.9861 56.6639 34.7412 56.3795 34.7412C56.0945 34.7412 55.6839 35.9251 55.4673 37.3721L55.0731 40.0031H48.0375H41.0019L41.3687 38.5415C41.8546 36.6021 40.4617 36.5969 37.3326 38.5263C35.0602 39.9277 34.6829 39.9669 23.4624 39.985L11.9282 40.0031V38.5415C11.9282 37.6241 11.5982 37.0798 11.0411 37.0798C10.4243 37.0798 10.2421 36.6781 10.4436 35.7643C10.6025 35.0411 11.2735 31.2916 11.934 27.4329C12.5945 23.5741 13.2831 19.6738 13.4635 18.7658L13.7917 17.1147L25.3528 17.3042L36.9133 17.4936L39.5758 19.4089ZM84.4178 27.579C83.6855 31.7564 82.7318 35.4188 82.2476 35.9105C81.7471 36.4191 79.8619 36.9103 77.7601 37.0798C74.9142 37.3096 74.0948 37.592 73.9418 38.3953C73.7725 39.2863 74.2473 39.4185 77.6153 39.4185C79.9402 39.4185 82.1705 39.0624 83.2066 38.5263C84.1538 38.0357 84.9323 37.5756 84.9364 37.5031C84.9399 37.4312 85.594 33.8203 86.3894 29.4792C88.1257 20.0053 88.1204 20.1246 86.7865 20.1246C85.8825 20.1246 85.5286 21.2395 84.4178 27.579ZM39.4263 26.4021C38.3844 33.2333 38.107 33.8244 35.1221 35.5755C32.6453 37.0284 32.2266 37.0798 22.827 37.0798C13.4857 37.0798 13.0962 37.1266 13.0962 38.2491C13.0962 39.3752 13.481 39.4179 23.4624 39.405C33.6381 39.3916 33.8823 39.3618 36.7486 37.7949L39.6686 36.1987L40.7012 30.3544C41.7874 24.2032 41.8184 21.8066 40.8145 21.4775C40.4629 21.3623 39.8795 23.432 39.4263 26.4021ZM71.1818 23.8781C70.8746 25.9274 70.2883 26.985 68.6238 28.4899C67.4366 29.5645 66.5676 30.7526 66.6937 31.1303C67.1031 32.3598 69.4899 31.8564 71.0597 30.21C73.0027 28.1719 73.8688 23.121 72.4736 21.9622C71.6998 21.319 71.5264 21.5763 71.1818 23.8781ZM114.995 23.4864C114.413 27.0791 113.782 28.0602 111.011 29.6856C109.013 30.8584 107.585 31.2332 105.12 31.2332C102.617 31.2332 101.866 31.4355 101.866 32.1102C101.866 32.8147 102.762 32.9872 106.423 32.9872C110.453 32.9872 111.292 32.7901 113.662 31.2852C116.111 29.7306 116.377 29.3313 116.744 26.6593C116.993 24.8469 116.898 23.2706 116.493 22.5141C115.596 20.8367 115.405 20.9606 114.995 23.4864ZM23.6422 26.1174C23.2562 28.1274 22.7995 30.3638 22.6272 31.087C22.3814 32.1178 22.5671 32.4025 23.4828 32.4025C24.8786 32.4025 25.1268 31.8477 25.6664 27.5247C26.004 24.8206 26.2796 24.2172 27.1796 24.2172C27.7852 24.2172 28.2804 23.8226 28.2804 23.3402C28.2804 22.7339 27.6725 22.4632 26.3123 22.4632C24.3623 22.4632 24.3378 22.4971 23.6422 26.1174ZM54.4499 24.5095C54.2543 26.1875 54.4032 26.5559 55.2769 26.5559C55.8825 26.5559 56.5874 25.9092 56.9115 25.0562C57.7507 22.8462 57.6287 22.4632 56.0846 22.4632C54.9241 22.4632 54.6485 22.8082 54.4499 24.5095ZM99.3136 23.7787C98.726 25.9753 98.8931 26.5559 100.114 26.5559C100.892 26.5559 101.282 26.1659 101.282 25.3865C101.282 24.6072 101.671 24.2172 102.45 24.2172C103.099 24.2172 103.618 23.8272 103.618 23.3402C103.618 22.7333 103.009 22.4632 101.642 22.4632C100.086 22.4632 99.591 22.7433 99.3136 23.7787ZM26.5775 27.7497C25.792 31.4173 25.7616 32.8246 26.4834 32.0809C27.2327 31.3092 28.2285 25.4234 27.6684 25.0767C27.4167 24.9211 26.9261 26.1238 26.5775 27.7497ZM97.801 32.5569L97.0283 37.0798H92.7312C88.823 37.0798 88.4335 37.1856 88.4335 38.2491C88.4335 39.3308 88.823 39.4185 93.6265 39.4185C98.5292 39.4185 98.8364 39.3448 99.1325 38.103C99.977 34.5587 100.056 31.4074 99.341 29.7797C98.5859 28.0614 98.5619 28.1052 97.801 32.5569ZM53.0944 32.5457C52.8754 34.2974 52.5169 36.0222 52.2967 36.3782C52.0748 36.7384 49.8316 37.1032 47.2491 37.1991C43.3689 37.3435 42.5694 37.5411 42.4065 38.3953C42.2307 39.3144 42.8048 39.4185 48.0597 39.4185C51.2764 39.4185 54.0481 39.191 54.2198 38.9127C54.3915 38.635 54.7034 36.9506 54.9119 35.1703C55.1992 32.7229 55.0725 31.6196 54.3921 30.6468C53.5231 29.4055 53.4776 29.4722 53.0944 32.5457ZM70.766 32.0763C69.5378 32.9755 69.4695 33.7841 70.5464 34.6792C71.1894 35.213 71.4207 34.9779 71.7185 33.4876C72.1659 31.2472 72.0777 31.1162 70.766 32.0763ZM123.292 33.3649C123.07 33.5859 122.89 34.2401 122.89 34.8177C122.89 36.0695 121.211 37.0798 119.133 37.0798C117.307 37.0798 117.103 38.5859 118.853 39.1425C121.125 39.864 124.06 38.9045 124.695 37.233C125.653 34.7102 124.665 31.9891 123.292 33.3649ZM59.8059 38.2281C60.3776 39.2974 61.0072 39.4185 66.0127 39.4185C71.0025 39.4185 71.5626 39.3121 71.3874 38.3953C71.2186 37.513 70.363 37.3493 65.1805 37.2049C59.2925 37.0418 59.1827 37.0623 59.8059 38.2281ZM72.3732 37.6645C72.5718 37.986 72.8497 38.2491 72.9917 38.2491C73.1336 38.2491 73.2492 37.986 73.2492 37.6645C73.2492 37.3429 72.9706 37.0798 72.6307 37.0798C72.2908 37.0798 72.1746 37.3429 72.3732 37.6645Z" fill="#1A1D1F"/>
</g>
<defs>
<filter id="filter0_d_206_3922" x="0" y="0" width="138.322" height="54.2812" filterUnits="userSpaceOnUse" color-interpolation-filters="sRGB">
<feFlood flood-opacity="0" result="BackgroundImageFix"/>
<feColorMatrix in="SourceAlpha" type="matrix" values="0 0 0 0 0 0 0 0 0 0 0 0 0 0 0 0 0 0 127 0" result="hardAlpha"/>
<feOffset/>
<feGaussianBlur stdDeviation="1"/>
<feComposite in2="hardAlpha" operator="out"/>
<feColorMatrix type="matrix" values="0 0 0 0 1 0 0 0 0 0.995324 0 0 0 0 0.995324 0 0 0 1 0"/>
<feBlend mode="normal" in2="BackgroundImageFix" result="effect1_dropShadow_206_3922"/>
<feBlend mode="normal" in="SourceGraphic" in2="effect1_dropShadow_206_3922" result="shape"/>
</filter>
</defs>
</svg>
