<svg width="28" height="28" viewBox="0 0 28 28" fill="none" xmlns="http://www.w3.org/2000/svg">
<rect width="28" height="28" fill="white"/>
<path d="M7.80029 10.4596H11.9967C12.2511 10.4596 12.5016 10.3969 12.7259 10.2769C12.9502 10.1569 13.1415 9.98338 13.2827 9.77176L13.9102 8.82892C14.0514 8.6173 14.2426 8.4438 14.467 8.32382C14.6913 8.20383 14.9418 8.14108 15.1962 8.14111H18.6646C18.9891 8.14104 19.3054 8.24311 19.5687 8.43286C19.832 8.62262 20.0288 8.89043 20.1314 9.19833L20.5518 10.4596M21.711 10.4596H11.6644" stroke="#157D18" stroke-width="1.54564" stroke-linecap="round" stroke-linejoin="round"/>
<path d="M20.5519 10.46L20.0727 18.1155C20.0568 18.368 20.041 18.6042 20.0256 18.8242M8.95959 10.46L9.42715 18.1085C9.54616 19.9741 9.60644 20.9061 10.1026 21.5777C10.3476 21.9093 10.6637 22.189 11.03 22.3992C11.7719 22.8251 12.7642 22.8251 14.7503 22.8251H16.6878M20.9383 21.2794C20.9383 20.6645 20.694 20.0748 20.2592 19.64C19.8244 19.2052 19.2347 18.961 18.6198 18.961C18.0049 18.961 17.4152 19.2052 16.9804 19.64C16.5456 20.0748 16.3014 20.6645 16.3014 21.2794C16.3014 21.8943 16.5456 22.484 16.9804 22.9188C17.4152 23.3536 18.0049 23.5979 18.6198 23.5979C19.2347 23.5979 19.8244 23.3536 20.2592 22.9188C20.694 22.484 20.9383 21.8943 20.9383 21.2794Z" stroke="#157D18" stroke-width="1.54564" stroke-linecap="round" stroke-linejoin="round"/>
<path d="M16.7775 15.4043L14.492 13.1188C14.1278 12.7554 13.6342 12.5513 13.1197 12.5513C12.6052 12.5513 12.1117 12.7554 11.7475 13.1188C10.991 13.8752 10.991 15.1036 11.7475 15.8633L14.0329 18.1488C14.7926 18.9052 16.021 18.9052 16.7775 18.1488C17.1409 17.7846 17.345 17.291 17.345 16.7765C17.345 16.262 17.1409 15.7685 16.7775 15.4043ZM16.3184 15.8633C16.4795 16.0231 16.5955 16.2228 16.6545 16.4419C16.7136 16.6611 16.7136 16.8919 16.6546 17.1111L14.7183 15.178L13.3476 16.5486L12.2065 15.4043C12.086 15.2847 11.9903 15.1424 11.9251 14.9857C11.8598 14.8289 11.8262 14.6608 11.8262 14.491C11.8262 14.3213 11.8598 14.1532 11.9251 13.9964C11.9903 13.8397 12.086 13.6974 12.2065 13.5778C12.3261 13.4573 12.4684 13.3617 12.6251 13.2964C12.7818 13.2311 12.9499 13.1975 13.1197 13.1975C13.2895 13.1975 13.4576 13.2311 13.6143 13.2964C13.7711 13.3617 13.9133 13.4573 14.0329 13.5778L16.3184 15.8633Z" fill="#157D18"/>
<path d="M10.0976 6.23381C9.44335 5.55395 8.55668 5.08517 7.5387 4.99172C5.75245 4.82774 4.13592 5.8531 3.45805 7.41399L4.33712 7.79684C4.59577 7.20071 5.03599 6.70144 5.59504 6.37019C6.1541 6.03894 6.80345 5.89262 7.45054 5.95207C8.19962 6.02084 8.858 6.36019 9.35105 6.85481L7.8328 8.11774L11.2901 8.43512L11.6074 4.97785L10.0976 6.23381Z" fill="#157D18"/>
</svg>
