<svg width="134" height="26" viewBox="0 0 134 26" fill="none" xmlns="http://www.w3.org/2000/svg">
<path d="M9.823 25.2398C8.06483 25.2398 6.48933 24.9543 5.0965 24.3835C3.70367 23.8127 2.58483 22.9678 1.74 21.849C0.918 20.7302 0.484167 19.383 0.4385 17.8075H6.672C6.76333 18.698 7.07158 19.383 7.59675 19.8625C8.12192 20.3192 8.80692 20.5475 9.65175 20.5475C10.5194 20.5475 11.2044 20.3534 11.7068 19.9653C12.2091 19.5542 12.4603 18.9948 12.4603 18.287C12.4603 17.6933 12.2548 17.2024 11.8438 16.8142C11.4556 16.4261 10.9647 16.1064 10.371 15.8552C9.80017 15.6041 8.97817 15.3187 7.905 14.999C6.35233 14.5195 5.08508 14.04 4.10325 13.5605C3.12142 13.081 2.27658 12.3732 1.56875 11.437C0.860917 10.5008 0.507 9.27925 0.507 7.77225C0.507 5.53458 1.31758 3.78783 2.93875 2.532C4.55992 1.25333 6.672 0.614 9.275 0.614C11.9237 0.614 14.0586 1.25333 15.6798 2.532C17.3009 3.78783 18.1686 5.546 18.2828 7.8065H11.9465C11.9008 7.03017 11.6154 6.42508 11.0903 5.99125C10.5651 5.53458 9.8915 5.30625 9.0695 5.30625C8.36167 5.30625 7.79083 5.50033 7.357 5.8885C6.92317 6.25383 6.70625 6.79041 6.70625 7.49825C6.70625 8.27458 7.07158 8.87967 7.80225 9.3135C8.53292 9.74733 9.67458 10.2154 11.2273 10.7177C12.7799 11.2429 14.0358 11.7452 14.9948 12.2247C15.9766 12.7042 16.8214 13.4007 17.5293 14.314C18.2371 15.2273 18.591 16.4032 18.591 17.8417C18.591 19.2117 18.2371 20.4562 17.5293 21.575C16.8443 22.6938 15.8396 23.5843 14.5153 24.2465C13.1909 24.9087 11.6268 25.2398 9.823 25.2398ZM35.7069 25.2398C33.4464 25.2398 31.3686 24.7146 29.4734 23.6642C27.6011 22.6139 26.1055 21.1526 24.9867 19.2802C23.8907 17.3851 23.3427 15.2616 23.3427 12.9097C23.3427 10.5579 23.8907 8.44583 24.9867 6.5735C26.1055 4.70117 27.6011 3.23983 29.4734 2.1895C31.3686 1.13917 33.4464 0.614 35.7069 0.614C37.9674 0.614 40.0338 1.13917 41.9062 2.1895C43.8013 3.23983 45.2855 4.70117 46.3587 6.5735C47.4547 8.44583 48.0027 10.5579 48.0027 12.9097C48.0027 15.2616 47.4547 17.3851 46.3587 19.2802C45.2627 21.1526 43.7785 22.6139 41.9062 23.6642C40.0338 24.7146 37.9674 25.2398 35.7069 25.2398ZM35.7069 19.8967C37.6249 19.8967 39.1547 19.2574 40.2964 17.9787C41.4609 16.7001 42.0432 15.0104 42.0432 12.9097C42.0432 10.7862 41.4609 9.09658 40.2964 7.84075C39.1547 6.56208 37.6249 5.92275 35.7069 5.92275C33.7661 5.92275 32.2134 6.55067 31.0489 7.8065C29.9072 9.06233 29.3364 10.7634 29.3364 12.9097C29.3364 15.0332 29.9072 16.7343 31.0489 18.013C32.2134 19.2688 33.7661 19.8967 35.7069 19.8967ZM59.2583 20.479H66.9303V25H53.4016V0.956499H59.2583V20.479ZM77.7212 5.64875V10.5122H85.5645V15.0332H77.7212V20.3077H86.592V25H71.8645V0.956499H86.592V5.64875H77.7212ZM107.262 25L102.365 17.6362L98.0491 25H91.4046L99.1109 12.7727L91.2334 0.956499H98.0491L102.878 8.2175L107.125 0.956499H113.77L106.132 13.081L114.078 25H107.262ZM125.016 5.64875V10.5122H132.859V15.0332H125.016V20.3077H133.886V25H119.159V0.956499H133.886V5.64875H125.016Z" fill="white"/>
</svg>
