<svg width="7" height="80" viewBox="0 0 7 80" fill="none" xmlns="http://www.w3.org/2000/svg">
<path d="M3.5 0L0.613249 5H6.38675L3.5 0ZM3.5 80H4V77.5H3.5H3V80H3.5ZM3.5 72.5H4L4 67.5H3.5H3L3 72.5H3.5ZM3.5 62.5H4V57.5H3.5H3L3 62.5H3.5ZM3.5 52.5H4V47.5H3.5H3L3 52.5H3.5ZM3.5 42.5H4L4 37.5H3.5H3V42.5H3.5ZM3.5 32.5H4V27.5H3.5H3V32.5H3.5ZM3.5 22.5H4V17.5H3.5H3L3 22.5H3.5ZM3.5 12.5H4V7.5H3.5H3L3 12.5H3.5ZM3.5 0L0.613249 5H6.38675L3.5 0ZM3.5 80H4V77.5H3.5H3V80H3.5ZM3.5 72.5H4L4 67.5H3.5H3L3 72.5H3.5ZM3.5 62.5H4V57.5H3.5H3L3 62.5H3.5ZM3.5 52.5H4V47.5H3.5H3L3 52.5H3.5ZM3.5 42.5H4L4 37.5H3.5H3V42.5H3.5ZM3.5 32.5H4V27.5H3.5H3V32.5H3.5ZM3.5 22.5H4V17.5H3.5H3L3 22.5H3.5ZM3.5 12.5H4V7.5H3.5H3L3 12.5H3.5Z" fill="white" fill-opacity="0.75"/>
</svg>
